<svg xmlns="http://www.w3.org/2000/svg" version="1.1" width="256" height="256" viewBox="0 0 256 256" xml:space="preserve">

<defs>
</defs>
<g style="stroke: none; stroke-width: 0; stroke-dasharray: none; stroke-linecap: butt; stroke-linejoin: miter; stroke-miterlimit: 10; fill: none; fill-rule: nonzero; opacity: 1;" transform="translate(1.4065934065934016 1.4065934065934016) scale(2.81 2.81)" >
	<path d="M 70.317 90 H 19.683 c -3.818 0 -6.925 -3.106 -6.925 -6.925 V 15.02 c 0 -1.657 1.343 -3 3 -3 h 58.484 c 1.657 0 3 1.343 3 3 v 68.056 C 77.242 86.894 74.136 90 70.317 90 z M 18.758 18.02 v 65.056 c 0 0.51 0.415 0.925 0.925 0.925 h 50.635 c 0.51 0 0.925 -0.415 0.925 -0.925 V 18.02 H 18.758 z" style="stroke: none; stroke-width: 1; stroke-dasharray: none; stroke-linecap: butt; stroke-linejoin: miter; stroke-miterlimit: 10; fill: rgb(134,133,231); fill-rule: nonzero; opacity: 1;" transform=" matrix(1 0 0 1 0 0) " stroke-linecap="round" />
	<path d="M 80.383 18.02 H 9.617 c -1.657 0 -3 -1.343 -3 -3 s 1.343 -3 3 -3 h 70.766 c 1.657 0 3 1.343 3 3 S 82.04 18.02 80.383 18.02 z" style="stroke: none; stroke-width: 1; stroke-dasharray: none; stroke-linecap: butt; stroke-linejoin: miter; stroke-miterlimit: 10; fill: rgb(134,133,231); fill-rule: nonzero; opacity: 1;" transform=" matrix(1 0 0 1 0 0) " stroke-linecap="round" />
	<path d="M 58.608 18.02 H 31.392 c -1.657 0 -3 -1.343 -3 -3 V 6.925 C 28.392 3.106 31.499 0 35.317 0 h 19.367 c 3.818 0 6.925 3.106 6.925 6.925 v 8.095 C 61.608 16.676 60.266 18.02 58.608 18.02 z M 34.392 12.02 h 21.216 V 6.925 c 0 -0.51 -0.415 -0.925 -0.925 -0.925 H 35.317 c -0.51 0 -0.925 0.415 -0.925 0.925 V 12.02 z" style="stroke: none; stroke-width: 1; stroke-dasharray: none; stroke-linecap: butt; stroke-linejoin: miter; stroke-miterlimit: 10; fill: rgb(134,133,231); fill-rule: nonzero; opacity: 1;" transform=" matrix(1 0 0 1 0 0) " stroke-linecap="round" />
	<path d="M 55.39 75.309 c -1.657 0 -3 -1.343 -3 -3 v -42.6 c 0 -1.657 1.343 -3 3 -3 s 3 1.343 3 3 v 42.6 C 58.39 73.966 57.047 75.309 55.39 75.309 z" style="stroke: none; stroke-width: 1; stroke-dasharray: none; stroke-linecap: butt; stroke-linejoin: miter; stroke-miterlimit: 10; fill: rgb(134,133,231); fill-rule: nonzero; opacity: 1;" transform=" matrix(1 0 0 1 0 0) " stroke-linecap="round" />
	<path d="M 34.611 75.309 c -1.657 0 -3 -1.343 -3 -3 v -42.6 c 0 -1.657 1.343 -3 3 -3 s 3 1.343 3 3 v 42.6 C 37.611 73.966 36.268 75.309 34.611 75.309 z" style="stroke: none; stroke-width: 1; stroke-dasharray: none; stroke-linecap: butt; stroke-linejoin: miter; stroke-miterlimit: 10; fill: rgb(134,133,231); fill-rule: nonzero; opacity: 1;" transform=" matrix(1 0 0 1 0 0) " stroke-linecap="round" />
</g>
</svg>